<?xml version="1.0" encoding="iso-8859-1"?>
<!-- Generator: Adobe Illustrator 17.1.0, SVG Export Plug-In . SVG Version: 6.00 Build 0)  -->
<!DOCTYPE svg PUBLIC "-//W3C//DTD SVG 1.1//EN" "http://www.w3.org/Graphics/SVG/1.1/DTD/svg11.dtd">
<svg version="1.1" id="Capa_1" xmlns="http://www.w3.org/2000/svg" xmlns:xlink="http://www.w3.org/1999/xlink" x="0px" y="0px"
	 viewBox="0 0 442 442" style="enable-background:new 0 0 442 442;" xml:space="preserve">
<g>
	<path d="M412.08,115.326c-0.006-0.322-0.027-0.643-0.064-0.961c-0.011-0.1-0.02-0.201-0.035-0.3
		c-0.057-0.388-0.131-0.773-0.232-1.151c-0.013-0.05-0.032-0.097-0.046-0.146c-0.094-0.33-0.206-0.654-0.333-0.973
		c-0.041-0.102-0.085-0.203-0.129-0.304c-0.126-0.289-0.266-0.571-0.42-0.848c-0.039-0.069-0.073-0.141-0.113-0.209
		c-0.203-0.346-0.426-0.682-0.672-1.004c-0.019-0.025-0.042-0.049-0.061-0.074c-0.222-0.285-0.463-0.558-0.718-0.82
		c-0.07-0.072-0.143-0.142-0.215-0.212c-0.225-0.217-0.461-0.424-0.709-0.622c-0.077-0.062-0.15-0.126-0.229-0.185
		c-0.311-0.234-0.634-0.457-0.979-0.657L226.034,1.359c-3.111-1.813-6.956-1.813-10.067,0l-181.092,105.5
		c-0.345,0.201-0.668,0.423-0.979,0.657c-0.079,0.059-0.152,0.124-0.229,0.185c-0.248,0.198-0.484,0.405-0.709,0.622
		c-0.073,0.07-0.145,0.14-0.215,0.212c-0.255,0.262-0.496,0.535-0.718,0.82c-0.02,0.025-0.042,0.049-0.061,0.074
		c-0.246,0.322-0.468,0.658-0.672,1.004c-0.04,0.068-0.075,0.14-0.113,0.209c-0.154,0.277-0.294,0.559-0.42,0.848
		c-0.044,0.101-0.088,0.202-0.129,0.304c-0.127,0.319-0.239,0.643-0.333,0.973c-0.014,0.049-0.033,0.097-0.046,0.146
		c-0.101,0.378-0.175,0.763-0.232,1.151c-0.014,0.099-0.023,0.2-0.035,0.3c-0.037,0.319-0.058,0.639-0.064,0.961
		c-0.001,0.058-0.012,0.115-0.012,0.174v211c0,3.559,1.891,6.849,4.966,8.641l181.092,105.5c0.029,0.017,0.059,0.027,0.088,0.043
		c0.357,0.204,0.725,0.391,1.108,0.55c0.004,0.002,0.009,0.003,0.014,0.005c0.362,0.15,0.736,0.273,1.118,0.38
		c0.097,0.027,0.193,0.051,0.291,0.075c0.299,0.074,0.603,0.134,0.912,0.181c0.103,0.016,0.205,0.035,0.308,0.047
		c0.393,0.047,0.79,0.078,1.195,0.078s0.803-0.031,1.195-0.078c0.103-0.012,0.205-0.031,0.308-0.047
		c0.309-0.047,0.613-0.107,0.912-0.181c0.097-0.024,0.194-0.047,0.291-0.075c0.382-0.107,0.756-0.23,1.118-0.38
		c0.004-0.002,0.009-0.003,0.014-0.005c0.383-0.159,0.751-0.346,1.108-0.55c0.029-0.016,0.059-0.027,0.088-0.043l181.092-105.5
		c3.075-1.792,4.966-5.082,4.966-8.641v-211C412.092,115.441,412.081,115.385,412.08,115.326z M221,209.427l-70.68-41.177
		l161.226-93.927l70.681,41.177L221,209.427z M221,21.573l70.68,41.177l-161.226,93.927L59.774,115.5L221,21.573z M392.092,320.752
		L231,414.601V374c0-5.523-4.477-10-10-10s-10,4.477-10,10v40.601L49.908,320.752V132.899l75.626,44.058
		c0.005,0.003,0.011,0.006,0.016,0.01L211,226.747V334c0,5.523,4.477,10,10,10s10-4.477,10-10V226.747l161.092-93.848V320.752z"/>
	<path d="M284.613,247.88c1.858,3.189,5.208,4.968,8.65,4.968c1.709,0,3.441-0.438,5.024-1.361l36.584-21.313
		c4.772-2.78,6.387-8.902,3.607-13.674c-2.78-4.772-8.903-6.386-13.674-3.607l-36.584,21.313
		C283.448,236.986,281.833,243.108,284.613,247.88z"/>
</g>
<g>
</g>
<g>
</g>
<g>
</g>
<g>
</g>
<g>
</g>
<g>
</g>
<g>
</g>
<g>
</g>
<g>
</g>
<g>
</g>
<g>
</g>
<g>
</g>
<g>
</g>
<g>
</g>
<g>
</g>
</svg>
